# xmcd
#
# Track frame offsets:
#	150
#	20455
#	32624
#	46332
#	62194
#	79441
#	100861
#	123353
#	147452
#	171518
#	183677
#	197356
#	213221
#	230452
#	250963
#	272543
#
# Disc length: 3930 seconds
#
# Revision: 1
# Processed by: cddbd v1.5.2PL0 Copyright (c) Steve Scherf et al.
# Submitted via: EasyCDDAExtractor 15.2.0.1
#
DISCID=e50f5810
DTITLE=Gerson Rufino - A Harpa
DYEAR=2007
DGENRE=Gospel
TTITLE0=Oh! Jesus Me Ama
TTITLE1=Conversao
TTITLE2=Um Pecador Remido
TTITLE3=O Senhor Da Ceifa Chama
TTITLE4=Uma Flor Gloriosa
TTITLE5=Os Guerreiros Se Preparam
TTITLE6=Mais Perto Quero Estar
TTITLE7=Saudosa Lembranca
TTITLE8=Saudosa Lembranca (Pb)
TTITLE9=Conversao (Pb)
TTITLE10=Um Pecador Remido (Pb)
TTITLE11=O Senhor Da Ceifa Chama (Pb)
TTITLE12=Uma Flor Gloriosa (Pb)
TTITLE13=Oh! Jesus Me Ama (Pb)
TTITLE14=Os Guerreiros Se Preparam (Pb)
TTITLE15=Mais Perto Quero Estar (Pb)
EXTD=
EXTT0=
EXTT1=
EXTT2=
EXTT3=
EXTT4=
EXTT5=
EXTT6=
EXTT7=
EXTT8=
EXTT9=
EXTT10=
EXTT11=
EXTT12=
EXTT13=
EXTT14=
EXTT15=
PLAYORDER=
